<?xml version="1.0" encoding="utf-8"?>
<!-- Generator: Adobe Illustrator 19.0.0, SVG Export Plug-In . SVG Version: 6.00 Build 0)  -->
<svg version="1.1" id="layer" xmlns="http://www.w3.org/2000/svg" xmlns:xlink="http://www.w3.org/1999/xlink" x="0px" y="0px"
	 viewBox="-153 -46 652 652" style="enable-background:new -153 -46 652 652;" xml:space="preserve">
<style type="text/css">
	.st0{fill:#E3000B;}
	.st1{fill:#EC6500;}
	.st2{fill:#F39100;}
	.st3{fill:#FBB900;}
	.st4{fill:#FFDD00;}
</style>
<path class="st0" d="M-131.1,326.3h101.6v20.1h-101.6V326.3z"/>
<path class="st1" d="M-6.5,326.3H95.1v20.1H-6.5V326.3z"/>
<path class="st2" d="M118.1,326.3h101.6v20.1H118.1V326.3z"/>
<path class="st3" d="M242.7,326.3h101.6v20.1H242.7V326.3z"/>
<path class="st4" d="M367.3,326.3h101.6v20.1H367.3V326.3z"/>
<path d="M76.8,144.8l21.2-3.4v160.2c-4.9,1.3-11.1,2.5-18.7,3.8c-8.7,1.3-17.4,2-26.2,1.9c-8.4,0.1-16.7-1.2-24.7-4
	c-7-2.5-13.3-6.3-18.7-11.4c-5.3-5-9.4-11.2-12-18c-2.9-7.6-4.3-15.7-4.2-23.9c-0.1-7.9,1.1-15.7,3.5-23.2
	c2.2-6.7,5.7-12.9,10.4-18.1c4.7-5.1,10.4-9.1,16.8-11.8c7.2-2.9,14.9-4.4,22.7-4.2c10.4-0.1,20.7,2.4,29.9,7.4L76.8,144.8
	L76.8,144.8z M76.8,218.4c-8-5.5-17.5-8.4-27.2-8.4c-5.4-0.1-10.7,0.9-15.6,3.1c-4.2,1.9-7.8,4.8-10.6,8.4
	c-2.8,3.8-4.9,8.1-5.9,12.7c-1.2,5.2-1.9,10.5-1.8,15.8c0,12.8,3.4,22.6,10.3,29.6c6.8,6.9,16,10.4,27.4,10.4
	c4.9,0.1,9.7-0.2,14.5-0.7c3-0.3,6-0.9,9-1.6L76.8,218.4L76.8,218.4z M124.5,250.2c-0.2-8.7,1.4-17.3,4.6-25.4
	c2.8-6.8,6.9-12.9,12.1-17.9c5-4.7,10.9-8.4,17.3-10.7c6.4-2.4,13.3-3.6,20.1-3.6c16,0,28.2,4.6,36.8,13.8
	c8.5,9.2,12.8,23.2,12.8,42v3.3c0,1.2-0.1,2.5-0.2,3.7h-81.3c0.9,11.4,4.5,20,10.7,25.9c6.3,5.9,16,8.8,29.2,8.8
	c6.3,0.1,12.6-0.5,18.8-1.8c3.9-0.8,7.8-2,11.5-3.5l3,16.4c-4.4,1.8-8.9,3.1-13.6,4c-7.2,1.5-14.6,2.2-22,2.1
	c-9.1,0.2-18.2-1.2-26.8-4.3c-7-2.5-13.4-6.6-18.6-11.9c-4.9-5.1-8.6-11.3-10.8-18C125.6,265.7,124.4,258,124.5,250.2z M206,239.5
	c0.1-8.8-2.2-16.1-7.2-21.8s-11.8-8.6-20.4-8.5c-8.5-0.2-16.6,3.3-22.4,9.5c-2.6,2.8-4.7,6.1-6.1,9.7c-1.4,3.6-2.4,7.3-2.9,11.2
	L206,239.5L206,239.5z M255.3,198.4c4.9-1.1,11.3-2.3,19.4-3.6c9.2-1.3,18.5-2,27.9-1.9c9.4,0,17.3,1.2,23.5,3.7
	c5.8,2.1,10.9,5.7,15,10.3c3.8,4.6,6.6,10,7.9,15.9c1.6,6.7,2.3,13.5,2.3,20.4v61.5H330v-57.3c0.1-5.8-0.4-11.6-1.5-17.3
	c-0.7-4.2-2.4-8.1-4.9-11.6c-2.3-3-5.5-5.2-9.1-6.4c-4.6-1.4-9.4-2.1-14.1-2c-2.3,0-4.6,0.1-7.1,0.2c-2.4,0.1-4.8,0.3-7,0.5
	c-2.2,0.2-4.2,0.5-5.9,0.7c-1.7,0.3-3,0.5-3.8,0.6v92.4h-21.2L255.3,198.4L255.3,198.4z M421.3,192.5c7.3-0.2,14.6,0.9,21.6,3.1
	c5.3,1.7,10.2,4.7,14.2,8.7c3.6,3.7,6.2,8.3,7.6,13.2c1.6,5.5,2.3,11.2,2.2,16.9v68.4l-7.6,1.2c-3.3,0.5-7,0.9-11.1,1.3
	c-4.1,0.4-8.6,0.8-13.4,1.2c-4.8,0.4-9.5,0.5-14.3,0.5c-6.2,0.1-12.4-0.6-18.5-1.9c-5.2-1.1-10.1-3.1-14.5-6
	c-4.1-2.7-7.4-6.5-9.6-10.8c-2.4-5.1-3.6-10.6-3.4-16.2c-0.2-5.5,1.2-10.9,4-15.6c2.7-4.4,6.4-8,10.8-10.6c5-2.8,10.4-4.8,16-5.9
	c6.3-1.3,12.7-1.9,19.2-1.9c2.1,0,4.3,0.1,6.6,0.3c2.3,0.2,4.4,0.5,6.5,0.8l5.4,0.9c1.5,0.3,2.6,0.5,3.2,0.6v-5.5
	c0-3.2-0.4-6.4-1.1-9.6c-0.7-3.1-2.1-6-4.1-8.4c-2.2-2.6-5-4.6-8.1-5.9c-4.3-1.6-8.8-2.4-13.4-2.2c-6.2-0.1-12.3,0.4-18.4,1.3
	c-4,0.6-7.9,1.6-11.8,2.8l-2.5-16.2c4.4-1.5,9-2.6,13.7-3.3C407.4,193,414.3,192.5,421.3,192.5z M423.1,290.6c5,0,9.5-0.1,13.4-0.3
	c3.3-0.1,6.5-0.5,9.7-1.2v-32.6c-2.4-0.9-4.9-1.5-7.4-1.8c-4.1-0.5-8.3-0.8-12.4-0.7c-3.4,0-6.8,0.2-10.2,0.6
	c-3.4,0.4-6.7,1.3-9.8,2.6c-2.9,1.2-5.4,3.1-7.4,5.5c-2.1,2.6-3.1,5.8-3,9.2c0,7.1,2.4,11.9,7.3,14.6
	C408.1,289.3,414.8,290.6,423.1,290.6L423.1,290.6z M-101,383.1c0.1,2.6-0.4,5.2-1.3,7.6c-0.9,2.1-2.2,3.9-3.9,5.4
	c-1.8,1.5-3.8,2.6-6,3.2c-2.5,0.7-5.2,1.1-7.8,1c-1.4,0-2.9-0.1-4.6-0.2c-1.7-0.1-3.3-0.3-4.9-0.7v-32.8c1.6-0.4,3.3-0.6,5-0.7
	c1.8-0.1,3.3-0.1,4.7-0.1c2.6,0,5.2,0.3,7.8,1c2.2,0.6,4.3,1.7,6,3.1c1.7,1.5,3,3.3,3.9,5.4C-101.4,377.8-100.9,380.4-101,383.1
	L-101,383.1z M-123.5,395c0.4,0,0.8,0,1.4,0.1h2.4c4.1,0,7.2-1,9.3-3.1c2.1-2.4,3.2-5.6,3.1-8.8c0-3.8-1-6.8-3-8.8
	c-2-2.1-5.1-3.1-9.3-3.1c-1.3,0-2.6,0-4,0.1L-123.5,395L-123.5,395z M-96,387.4c-0.1-2,0.3-4,1-5.9c0.6-1.6,1.5-3,2.6-4.2
	c1.1-1.1,2.4-2,3.8-2.5c1.4-0.6,2.9-0.9,4.4-0.9c3.1-0.2,6.1,1,8.2,3.3c2,2.2,2.9,5.4,2.9,9.8v1.1c0,0.4,0,0.8-0.1,1.1h-16.8
	c0.1,1.8,0.8,3.5,2.2,4.8c1.6,1.2,3.6,1.8,5.6,1.7c1.3,0,2.7-0.1,4-0.4c1-0.2,1.9-0.5,2.8-0.8l0.8,4.8c-0.4,0.2-0.9,0.4-1.3,0.5
	c-0.6,0.2-1.3,0.4-2,0.5c-0.7,0.1-1.5,0.3-2.4,0.4c-0.9,0.1-1.8,0.1-2.6,0.1c-2,0-4-0.3-5.9-1c-1.6-0.6-3-1.5-4.1-2.8
	c-1.1-1.2-1.9-2.6-2.4-4.2C-95.7,390.9-96,389.1-96,387.4z M-78.8,384.7c0-0.8-0.1-1.6-0.3-2.3c-0.2-0.7-0.5-1.3-1-1.9
	c-0.4-0.6-1-1-1.6-1.3c-0.7-0.3-1.5-0.5-2.3-0.5c-0.8,0-1.6,0.2-2.4,0.5c-0.7,0.3-1.2,0.8-1.7,1.3c-0.5,0.6-0.8,1.2-1.1,1.9
	c-0.3,0.7-0.4,1.4-0.5,2.2L-78.8,384.7L-78.8,384.7z M-45.8,399.2c-1.1,0.3-2.6,0.6-4.4,0.9c-2,0.3-4,0.5-6,0.5
	c-1.8,0.1-3.5-0.2-5.1-0.9c-1.3-0.5-2.4-1.4-3.3-2.4c-0.9-1.1-1.5-2.4-1.8-3.7c-0.4-1.6-0.6-3.2-0.5-4.8v-14.3h5.9v13.4
	c-0.2,2,0.2,4.1,1.2,5.9c1,1.3,2.6,1.9,4.2,1.8c0.7,0,1.5,0,2.3-0.1c0.6,0,1.2-0.1,1.8-0.2v-20.7h5.9L-45.8,399.2L-45.8,399.2z
	 M-38.5,367.8l5.9-1v7.7h9v4.9h-9.1v10.4c-0.1,1.5,0.2,3.1,1,4.4c0.8,1,2.1,1.5,3.3,1.3c1,0,1.9-0.1,2.9-0.3c0.7-0.2,1.3-0.4,2-0.6
	l1,4.7c-0.9,0.4-1.7,0.7-2.6,0.9c-1.3,0.3-2.6,0.5-4,0.5c-1.6,0-3.1-0.2-4.6-0.7c-1.1-0.4-2.2-1.2-2.9-2.1c-0.7-1-1.2-2.1-1.5-3.4
	c-0.3-1.5-0.5-3-0.4-4.5L-38.5,367.8L-38.5,367.8z M-11.5,395.8c1.2,0.1,2.3-0.1,3.4-0.6c0.7-0.4,1.1-1.1,1.1-1.9
	c0-0.9-0.4-1.6-1.2-2.1c-1.2-0.8-2.5-1.4-3.8-1.8c-1-0.4-2-0.8-2.9-1.2c-0.8-0.4-1.6-0.9-2.3-1.5c-0.7-0.6-1.2-1.3-1.5-2.1
	c-0.4-1-0.6-2-0.6-3.1c-0.1-2.2,0.9-4.2,2.6-5.5c2-1.4,4.5-2.2,7-2c1.4,0,2.9,0.1,4.3,0.4c1,0.2,2.1,0.5,3.1,0.8l-1.1,4.8
	c-0.8-0.3-1.6-0.6-2.5-0.8c-1.2-0.3-2.3-0.4-3.5-0.4c-1,0-2,0.2-2.9,0.6c-0.7,0.3-1.2,1.1-1.1,1.9c0,0.4,0.1,0.8,0.2,1.1
	c0.2,0.4,0.4,0.7,0.8,0.9c0.4,0.3,0.9,0.6,1.4,0.8c0.7,0.3,1.4,0.6,2.1,0.9c1.2,0.4,2.4,1,3.6,1.5c0.9,0.4,1.7,1,2.4,1.7
	c0.6,0.6,1.1,1.4,1.4,2.2c0.3,0.9,0.5,1.9,0.4,2.9c0.1,2.2-0.9,4.3-2.6,5.5c-2.3,1.4-5,2-7.7,1.9c-1.8,0-3.6-0.1-5.4-0.6
	c-1-0.2-1.9-0.5-2.9-0.9l1-4.9c1,0.4,2.1,0.8,3.1,1C-14.2,395.6-12.8,395.8-11.5,395.8L-11.5,395.8z M3,387.3c0-1.8,0.3-3.6,0.9-5.3
	c0.5-1.6,1.4-3,2.5-4.3c1.1-1.2,2.5-2.2,4-2.8c1.7-0.7,3.5-1.1,5.3-1c2.3,0,4.7,0.4,6.8,1.3l-1.3,4.8c-0.7-0.3-1.5-0.6-2.3-0.7
	c-0.9-0.2-1.8-0.3-2.7-0.3c-2-0.1-4,0.7-5.3,2.2c-1.3,1.8-2,3.9-1.8,6.1c-0.1,2.1,0.5,4.3,1.7,6c1.1,1.5,3.1,2.2,5.8,2.2
	c1,0,2-0.1,3-0.3c0.9-0.2,1.7-0.4,2.5-0.7l0.8,4.9c-0.9,0.4-1.9,0.7-2.9,0.9c-1.3,0.3-2.7,0.4-4.1,0.4c-1.9,0-3.9-0.3-5.7-1
	c-1.5-0.6-2.9-1.6-4-2.8c-1.1-1.2-1.9-2.7-2.4-4.2C3.3,390.9,3,389.1,3,387.3L3,387.3z M27.4,400v-36.9l5.9-1v12.7
	c0.7-0.2,1.5-0.4,2.3-0.6c0.8-0.2,1.7-0.2,2.6-0.2c1.7-0.1,3.5,0.2,5.1,0.9c1.3,0.5,2.4,1.3,3.2,2.4c0.8,1.1,1.4,2.3,1.7,3.7
	c0.4,1.6,0.5,3.2,0.5,4.8v14.3h-5.9v-13.5c0-1.2-0.1-2.3-0.3-3.5c-0.1-0.8-0.4-1.6-0.9-2.3c-0.4-0.6-1-1.1-1.6-1.3
	c-0.8-0.3-1.7-0.4-2.5-0.4c-0.8,0-1.6,0.1-2.4,0.2c-0.6,0.1-1.2,0.3-1.8,0.4V400L27.4,400L27.4,400z M54.4,387.4c0-2,0.3-4,1-5.9
	c0.6-1.6,1.5-3,2.6-4.2c1.1-1.1,2.4-2,3.8-2.5c1.4-0.6,2.9-0.9,4.4-0.9c3.1-0.2,6.1,1,8.2,3.3c2,2.2,2.9,5.4,2.9,9.8v1.1
	c0,0.4,0,0.8-0.1,1.1H60.5c0.1,1.8,0.8,3.5,2.2,4.8c1.6,1.2,3.6,1.8,5.6,1.7c1.3,0,2.7-0.1,4-0.4c1-0.2,1.9-0.5,2.8-0.8l0.8,4.8
	c-0.4,0.2-0.9,0.4-1.3,0.5c-0.6,0.2-1.3,0.4-2,0.5c-0.7,0.1-1.5,0.3-2.4,0.4c-0.9,0.1-1.8,0.1-2.6,0.1c-2,0-4-0.3-5.9-1
	c-1.6-0.6-3-1.5-4.1-2.8c-1.1-1.2-1.9-2.6-2.4-4.2C54.6,390.9,54.4,389.2,54.4,387.4z M71.6,384.7c0-0.8-0.1-1.6-0.3-2.3
	c-0.2-0.7-0.5-1.3-1-1.9c-0.4-0.6-1-1-1.6-1.3c-0.7-0.3-1.5-0.5-2.3-0.4c-0.8,0-1.6,0.2-2.4,0.5c-0.7,0.3-1.2,0.8-1.7,1.3
	c-0.5,0.6-0.8,1.2-1.1,1.9c-0.3,0.7-0.4,1.4-0.5,2.2L71.6,384.7L71.6,384.7z M95.4,400v-33.8h21.7v5.2h-15.6v8.3h13.9v5.1h-13.9v9.9
	h16.7v5.2L95.4,400L95.4,400z M123.7,375.3c1.5-0.4,2.9-0.7,4.4-0.9c2-0.3,4-0.5,6.1-0.4c1.8-0.1,3.6,0.2,5.2,0.9
	c1.3,0.5,2.5,1.3,3.3,2.4c0.9,1.1,1.5,2.4,1.8,3.7c0.4,1.6,0.5,3.2,0.5,4.8V400h-5.9v-13.4c0-1.2-0.1-2.3-0.3-3.5
	c-0.1-0.8-0.4-1.6-0.9-2.3c-0.4-0.6-1-1.1-1.7-1.3c-0.8-0.3-1.7-0.4-2.6-0.4c-0.8,0-1.6,0.1-2.3,0.1l-1.8,0.2V400h-5.9L123.7,375.3
	L123.7,375.3z M150.8,387.4c0-2,0.3-4,1-5.9c0.6-1.6,1.5-3,2.6-4.2c1.1-1.1,2.4-2,3.8-2.5c1.4-0.6,2.9-0.9,4.4-0.9
	c3.1-0.2,6.1,1,8.2,3.3c2,2.2,2.9,5.4,2.9,9.8v1.1c0,0.4,0,0.8-0.1,1.1h-16.9c0.1,1.8,0.8,3.5,2.2,4.8c1.6,1.2,3.6,1.8,5.6,1.7
	c1.3,0,2.7-0.1,4-0.4c1-0.2,1.9-0.5,2.8-0.8l0.8,4.8c-0.4,0.2-0.9,0.4-1.3,0.5c-0.6,0.2-1.3,0.4-2,0.5c-0.7,0.1-1.5,0.3-2.4,0.4
	c-0.9,0.1-1.8,0.1-2.6,0.1c-2,0-4-0.3-5.9-1c-1.6-0.6-3-1.5-4.1-2.8c-1.1-1.2-1.9-2.6-2.4-4.2C151,390.9,150.8,389.2,150.8,387.4z
	 M168,384.7c0-0.8-0.1-1.6-0.3-2.3c-0.2-0.7-0.5-1.3-1-1.9c-0.4-0.6-1-1-1.6-1.3c-0.7-0.3-1.5-0.5-2.3-0.5c-0.8,0-1.6,0.2-2.4,0.5
	c-0.7,0.3-1.2,0.8-1.7,1.3c-0.5,0.6-0.8,1.2-1.1,1.9c-0.3,0.7-0.4,1.4-0.5,2.2L168,384.7L168,384.7z M194.5,379.8
	c-0.7-0.2-1.3-0.4-2-0.5c-1-0.2-2-0.3-3-0.3c-0.7,0-1.4,0.1-2.1,0.2c-0.5,0.1-1,0.2-1.5,0.3V400H180v-24.3c1.4-0.5,2.8-0.9,4.3-1.2
	c1.9-0.4,3.8-0.6,5.7-0.6c0.4,0,0.8,0,1.3,0.1c0.5,0.1,1,0.1,1.6,0.2c0.5,0.1,1,0.2,1.5,0.3s0.9,0.2,1.2,0.3L194.5,379.8z
	 M220.8,397.4c0,4.1-1,7-3.1,8.9s-5.2,2.8-9.5,2.8c-1.5,0-3.1-0.1-4.6-0.4c-1.3-0.2-2.7-0.6-4-1l1.1-5c1.1,0.5,2.3,0.8,3.4,1
	c1.4,0.3,2.8,0.4,4.2,0.4c1.8,0.2,3.6-0.3,5.1-1.5c1.1-1.2,1.6-2.7,1.5-4.3v-1c-0.7,0.4-1.5,0.6-2.3,0.9c-1.1,0.3-2.2,0.5-3.3,0.4
	c-1.5,0-3-0.2-4.5-0.8c-1.3-0.5-2.5-1.3-3.5-2.3c-1-1.1-1.8-2.4-2.2-3.8c-0.6-1.7-0.8-3.5-0.8-5.3c0-1.7,0.3-3.5,0.9-5.1
	c0.5-1.5,1.4-2.8,2.5-4c1.1-1.2,2.5-2.1,4-2.6c1.7-0.6,3.5-1,5.3-0.9c1.8,0,3.7,0.1,5.5,0.4c1.8,0.3,3.2,0.6,4.4,0.9L220.8,397.4
	L220.8,397.4z M204.3,386.6c-0.2,2,0.4,3.9,1.6,5.5c1.1,1.2,2.6,1.8,4.2,1.7c0.9,0,1.8-0.1,2.6-0.4c0.7-0.2,1.4-0.5,2-0.9v-13.2
	c-0.4-0.1-0.9-0.2-1.6-0.3c-0.8-0.1-1.6-0.1-2.3-0.1c-1.9-0.1-3.7,0.7-4.9,2.1C204.8,382.6,204.2,384.6,204.3,386.6L204.3,386.6z
	 M234.9,367c0.1,1-0.3,2-1.1,2.6c-0.7,0.6-1.6,1-2.5,1c-1,0-1.9-0.3-2.6-1c-0.7-0.7-1.1-1.6-1.1-2.6c0-1,0.3-2,1.1-2.6
	c0.7-0.7,1.7-1,2.6-1c0.9,0,1.8,0.3,2.5,1C234.5,365.1,234.9,366,234.9,367z M234.2,400h-5.9v-25.5h5.9V400z M240.3,387.4
	c0-2,0.3-4,1-5.9c0.6-1.6,1.5-3,2.6-4.2c1.1-1.1,2.4-2,3.8-2.5c1.4-0.6,2.9-0.9,4.4-0.9c3.1-0.2,6.1,1,8.2,3.3
	c2,2.2,2.9,5.4,2.9,9.8v1.1c0,0.4,0,0.8-0.1,1.1h-16.8c0.1,1.8,0.8,3.5,2.2,4.8c1.6,1.2,3.6,1.8,5.6,1.7c1.3,0,2.7-0.1,4-0.4
	c1-0.2,1.9-0.5,2.8-0.8l0.8,4.8c-0.4,0.2-0.9,0.4-1.3,0.5c-0.6,0.2-1.3,0.4-2,0.5c-0.7,0.1-1.5,0.3-2.4,0.4
	c-0.9,0.1-1.8,0.1-2.6,0.1c-2,0-4-0.3-5.9-1c-1.6-0.6-3-1.5-4.1-2.8c-1.1-1.2-1.9-2.6-2.4-4.2C240.6,390.9,240.3,389.2,240.3,387.4
	L240.3,387.4z M257.5,384.7c0-0.8-0.1-1.6-0.3-2.3c-0.2-0.7-0.5-1.3-1-1.9c-0.4-0.6-1-1-1.6-1.3c-0.7-0.3-1.5-0.5-2.3-0.5
	c-0.8,0-1.6,0.2-2.4,0.5c-0.7,0.3-1.2,0.8-1.7,1.3c-0.5,0.6-0.8,1.2-1.1,1.9c-0.3,0.7-0.4,1.4-0.5,2.2L257.5,384.7L257.5,384.7z
	 M267,383.4h13.1v5.4H267V383.4z M307.8,400c-0.5-1.3-0.9-2.7-1.4-4c-0.5-1.3-1-2.6-1.4-4h-14.3c-0.5,1.4-0.9,2.7-1.4,4
	c-0.5,1.3-0.9,2.6-1.4,4h-6.4c1.3-3.6,2.5-6.9,3.6-10c1.1-3,2.2-5.9,3.3-8.7c1.1-2.7,2.2-5.3,3.2-7.8c1.1-2.5,2.2-4.9,3.3-7.3h5.9
	c1.1,2.4,2.2,4.8,3.3,7.3s2.2,5.1,3.2,7.8c1.1,2.7,2.2,5.6,3.4,8.7c1.2,3.1,2.4,6.4,3.6,10H307.8L307.8,400z M297.8,372.7
	c-0.7,1.8-1.6,3.9-2.6,6.3s-2,5.1-3,8.1h11.1c-1-2.9-2-5.6-3-8.1C299.3,376.5,298.5,374.4,297.8,372.7L297.8,372.7z M338.7,397.4
	c0,4.1-1,7-3.1,8.9c-2.1,1.9-5.2,2.8-9.5,2.8c-1.5,0-3.1-0.1-4.6-0.4c-1.3-0.2-2.7-0.6-4-1l1.1-5c1.1,0.5,2.3,0.8,3.4,1
	c1.4,0.3,2.8,0.4,4.2,0.4c1.8,0.2,3.6-0.3,5.1-1.5c1.1-1.2,1.6-2.7,1.5-4.3v-1c-0.7,0.4-1.5,0.6-2.3,0.9c-1.1,0.3-2.2,0.5-3.3,0.4
	c-1.5,0-3-0.2-4.5-0.8c-1.3-0.5-2.5-1.3-3.5-2.3c-1-1.1-1.8-2.4-2.2-3.8c-0.6-1.7-0.8-3.5-0.8-5.3c0-1.7,0.3-3.5,0.9-5.1
	c0.5-1.5,1.4-2.8,2.5-4c1.1-1.2,2.5-2.1,4-2.6c1.7-0.6,3.5-1,5.3-0.9c1.8,0,3.7,0.1,5.5,0.4c1.8,0.3,3.2,0.6,4.4,0.9L338.7,397.4
	L338.7,397.4z M322.3,386.6c-0.2,2,0.4,3.9,1.6,5.5c1.1,1.2,2.6,1.8,4.2,1.7c0.9,0,1.8-0.1,2.6-0.4c0.7-0.2,1.4-0.5,2-0.9v-13.2
	c-0.4-0.1-0.9-0.2-1.6-0.3c-0.8-0.1-1.6-0.1-2.3-0.1c-1.9-0.1-3.7,0.7-4.9,2.1C322.8,382.6,322.2,384.6,322.3,386.6L322.3,386.6z
	 M344.8,387.4c0-2,0.3-4,1-5.9c0.6-1.6,1.5-3,2.6-4.2c1.1-1.1,2.4-2,3.8-2.5c1.4-0.6,2.9-0.9,4.4-0.9c3.1-0.2,6.1,1,8.2,3.3
	c2,2.2,2.9,5.4,2.9,9.8v1.1c0,0,0,0.8-0.1,1.1h-16.8c0.1,1.8,0.8,3.5,2.2,4.8c1.6,1.2,3.6,1.8,5.6,1.7c1.3,0,2.7-0.1,4-0.4
	c1-0.2,1.9-0.5,2.8-0.8l0.8,4.8c-0.4,0.2-0.9,0.4-1.3,0.5c-0.6,0.2-1.3,0.4-2,0.5c-0.7,0.1-1.5,0.3-2.4,0.4
	c-0.9,0.1-1.8,0.1-2.6,0.1c-2,0-4-0.3-5.9-1c-1.6-0.6-3-1.5-4.1-2.8c-1.1-1.2-1.9-2.6-2.4-4.2C345.1,390.9,344.8,389.2,344.8,387.4
	L344.8,387.4z M362,384.7c0-0.8-0.1-1.6-0.3-2.3c-0.2-0.7-0.5-1.3-1-1.9c-0.4-0.6-1-1-1.6-1.3c-0.7-0.3-1.5-0.5-2.3-0.5
	c-0.8,0-1.6,0.2-2.4,0.5c-0.7,0.3-1.2,0.8-1.7,1.3c-0.5,0.6-0.8,1.2-1.1,1.9c-0.3,0.7-0.4,1.4-0.5,2.2L362,384.7L362,384.7z
	 M374.1,375.3c1.5-0.4,2.9-0.7,4.4-0.9c2-0.3,4-0.5,6.1-0.4c1.8-0.1,3.6,0.2,5.2,0.9c1.3,0.5,2.5,1.3,3.3,2.4
	c0.9,1.1,1.5,2.4,1.8,3.7c0.4,1.6,0.5,3.2,0.5,4.8V400h-5.9v-13.4c0-1.2-0.1-2.3-0.3-3.5c-0.1-0.8-0.4-1.6-0.9-2.3
	c-0.4-0.6-1-1.1-1.7-1.3c-0.8-0.3-1.7-0.4-2.6-0.4c-0.8,0-1.6,0.1-2.3,0.1l-1.8,0.2V400h-5.9L374.1,375.3L374.1,375.3z M402.4,367.8
	l5.9-1v7.7h9.1v4.9h-9.1v10.4c-0.1,1.5,0.2,3.1,1,4.4c0.8,1,2.1,1.5,3.3,1.3c1,0,1.9-0.1,2.9-0.3c0.7-0.2,1.3-0.4,2-0.6l1,4.7
	c-0.9,0.4-1.7,0.7-2.6,0.9c-1.3,0.3-2.6,0.5-4,0.5c-1.6,0-3.1-0.2-4.6-0.7c-1.1-0.4-2.2-1.2-2.9-2.1c-0.7-1-1.3-2.1-1.5-3.4
	c-0.3-1.5-0.5-3-0.4-4.5L402.4,367.8L402.4,367.8z M444,399.2c-1.1,0.3-2.6,0.6-4.4,0.9c-2,0.3-4,0.5-6,0.5
	c-1.8,0.1-3.5-0.2-5.1-0.9c-1.3-0.5-2.4-1.4-3.3-2.4c-0.9-1.1-1.5-2.4-1.8-3.7c-0.4-1.6-0.6-3.2-0.5-4.8v-14.3h5.9v13.4
	c-0.2,2,0.2,4.1,1.2,5.9c1,1.3,2.6,1.9,4.2,1.8c0.7,0,1.5,0,2.3-0.1c0.6,0,1.2-0.1,1.8-0.2v-20.7h5.9L444,399.2L444,399.2z
	 M466,379.8c-0.7-0.2-1.3-0.4-2-0.5c-1-0.2-2-0.3-3-0.3c-0.7,0-1.4,0.1-2.1,0.2c-0.5,0.1-1,0.2-1.5,0.3V400h-5.9v-24.3
	c1.4-0.5,2.8-0.9,4.3-1.2c1.9-0.4,3.8-0.6,5.7-0.6c0.4,0,0.8,0,1.3,0.1c0.5,0,1,0.1,1.6,0.2c0.5,0.1,1,0.2,1.5,0.3
	c0.5,0.1,0.9,0.2,1.2,0.3L466,379.8z"/>
</svg>
